<?xml version="1.0" encoding="iso-8859-1"?>
<!-- Generator: Adobe Illustrator 18.0.0, SVG Export Plug-In . SVG Version: 6.00 Build 0)  -->
<!DOCTYPE svg PUBLIC "-//W3C//DTD SVG 1.1//EN" "http://www.w3.org/Graphics/SVG/1.1/DTD/svg11.dtd">
<svg version="1.1" id="&#x30EC;&#x30A4;&#x30E4;&#x30FC;_3"
	 xmlns="http://www.w3.org/2000/svg" xmlns:xlink="http://www.w3.org/1999/xlink" x="0px" y="0px" viewBox="0 0 271.012 271.012"
	 style="enable-background:new 0 0 271.012 271.012;" xml:space="preserve">
<g>
	<polygon style="fill:#FFFFFF;" points="216.213,102.602 235.475,136.151 185.528,222.897 85.647,222.897 66.347,189.283 
		51.514,197.361 75.753,238.897 195.421,238.897 255.247,135.587 231.046,93.834 	"/>
	<polygon style="fill:#FFFFFF;" points="55.412,170.17 35.699,135.742 85.647,48.897 185.528,48.897 205.278,83.391 220.111,75.264 
		195.421,32.897 75.753,32.897 15.926,136.305 40.579,178.889 	"/>
</g>
<g>
	<path style="fill:#FFFFFF;" d="M191.596,168.69c-0.09,0.299-0.135,0.5-0.135,0.598c-0.269,0.597-0.449,0.947-0.538,1.045
		l-15.054,12.396c-0.449,0.399-1.122,0.597-2.016,0.597H80.974v-16.727h90.326v-20.46H97.506c-0.807,0-1.435-0.199-1.882-0.598
		l-15.188-12.396c-0.181-0.098-0.315-0.298-0.403-0.597l-0.269-0.896V106.86c0.179-0.298,0.269-0.497,0.269-0.597
		c0.178-0.598,0.313-0.945,0.403-1.045l15.188-12.396c0.447-0.396,1.075-0.597,1.882-0.597h92.879v16.727H100.06v20.461h73.793
		c0.895,0,1.567,0.201,2.016,0.597l15.054,12.396c0.269,0.101,0.447,0.299,0.538,0.598l0.135,0.896V168.69z"/>
</g>
</svg>
