<?xml version="1.0" encoding="iso-8859-1"?>
<!-- Generator: Adobe Illustrator 18.0.0, SVG Export Plug-In . SVG Version: 6.00 Build 0)  -->
<!DOCTYPE svg PUBLIC "-//W3C//DTD SVG 1.1//EN" "http://www.w3.org/Graphics/SVG/1.1/DTD/svg11.dtd">
<svg version="1.1" id="&#x30EC;&#x30A4;&#x30E4;&#x30FC;_1"
	 xmlns="http://www.w3.org/2000/svg" xmlns:xlink="http://www.w3.org/1999/xlink" x="0px" y="0px" viewBox="0 0 408 427"
	 style="enable-background:new 0 0 408 427;" xml:space="preserve">
<path style="fill:#FFFFFF;" d="M248,427c-2,0-4,0-6,0c-3.809-4.894-3.765-8.634,1.826-14.341c7.687-7.845,8.028-17.034,6.591-26.922
	c-1.227-8.437-6.214-14.852-10.872-21.574c-12.433-17.939-24.597-36.013-42.073-49.751c-3.195-2.512-5.658-6.665-7.113-10.563
	c-8.95-23.972-17.5-48.094-26.254-72.14c-0.381-1.047-1.294-2.344-2.246-2.659c-3.408-1.128-6.94-1.883-10.478-2.793
	c-0.263,0.522-0.534,0.941-0.693,1.399c-0.271,0.783-0.533,1.578-0.692,2.389c-5.074,25.952-9.02,51.904-9.298,78.568
	c-0.359,34.311,2.293,68.375,4.744,102.493c1.033,14.386-0.688,16.135-14.879,13.615c-6.338-1.126-8.555-4.317-7.175-10.605
	c0.818-3.726,2.724-7.414,2.665-11.096c-0.261-16.431-0.415-32.91-1.871-49.259c-1.012-11.37-4.247-22.53-6.109-33.846
	c-0.495-3.005-1.382-4.849-4.286-5.83c-13.478-4.552-26.928-9.188-39.909-13.63c2.295,6.193,5.175,12.348,6.814,18.818
	c1.844,7.28-0.264,15.481-3.635,18.79c0.238-22.539-10.009-40.33-24.264-41.763c0,0.662-0.051,1.306,0.007,1.94
	c1.925,20.754,7.876,40.117,20.206,57.163c7.274,10.055,8.912,21.337,8.046,33.421c-4.292-12.234-12.715-20.893-23.06-27.962
	c-3.848-2.629-7.734-5.205-11.542-7.89c-21.327-15.035-37.274-34.047-43.936-59.836C1.483,289.141,0.829,285.048,0,281
	c0-5.333,0-10.667,0-16c1.184-5.842,2.084-11.758,3.603-17.512c6.26-23.715,19.208-43.863,34.82-62.259
	c22.408-26.403,45.33-52.372,68.215-78.367c16.584-18.838,27.654-39.406,26.834-65.711c-0.243-7.794,5.023-15.911,8.409-23.597
	c1.529-3.47,4.875-3.759,7.803-0.787c1.62,1.644,3.195,3.333,4.868,5.082c10.178-7.925,21.64-7.239,34.071-4.92
	c-1.998-3.181-3.36-5.646-5.007-7.903C181.019,5.469,181.007,2.468,185,0c1.333,0,2.667,0,4,0
	c3.967,5.255,8.417,9.749,15.374,10.873c1.557,0.252,3.023,1.336,4.432,2.2c16.163,9.908,32.318,19.828,48.453,29.782
	c35.761,22.06,70.743,45.205,99.981,75.812c22.966,24.042,41.16,50.973,48.181,84.203c0.989,4.683,1.725,9.419,2.579,14.131
	c0,6,0,12,0,18c-0.285,0.933-0.735,1.85-0.83,2.802c-1.864,18.653-8.669,35.395-19.179,50.815
	c-8.318,12.204-20.064,20.787-31.016,30.239c-10.351,8.933-20.723,17.89-27.674,29.938c-6.417,11.122-5.612,18.986,2.578,28.816
	c0.434,0.52,0.697,1.183,1.372,2.357c-9.396-3.974-14.591-10.486-16.488-19.578c-2.538-12.159-0.362-23.786,4.101-35.179
	c0.711-1.815,0.696-4.063,0.499-6.06c-0.793-8.035-2.405-16.042-2.514-24.075c-0.086-6.312,1.59-12.649,2.595-19.759
	c-11.183,7.403-20.122,15.802-24.365,28.201c-4.216,12.32-0.367,23.073,6.913,33.17c-7.026-4.586-12.439-10.303-14.024-18.813
	c-2.153-11.56,2.136-21.614,9.003-30.16c7.995-9.95,17.367-18.782,25.865-28.344c2.543-2.862,5.296-6.322,6.003-9.893
	c2.771-14.008,5.485-28.102,6.811-42.296c1.028-11.008,1.141-22.382-0.434-33.291c-2.826-19.576-12.871-36.246-24.771-51.681
	c-27.977-36.288-63.792-63.532-102.136-87.79c-1.524-0.964-3.297-1.723-5.054-2.059c-1.048-0.201-2.9,0.292-3.289,1.044
	c-0.488,0.942-0.119,3.463,0.348,3.59c4.952,1.352,3.195,6.31,5.134,9.278c1.26-0.75,2.431-1.447,4.129-2.457
	c-0.294,1.977-0.457,3.274-0.684,4.559c-1.007,5.708,0.203,8.275,5.474,10.023c14.466,4.799,25.056,15.569,36.684,24.461
	c9.555,7.307,6.751,16.832-5.031,20.194c-7.335,2.093-14.895,3.466-22.416,4.823c-7.618,1.375-13.241,5.23-16.562,12.21
	c-1.854,3.897-3.273,8.001-5.138,11.891c-3.227,6.728-6.946,13.235-9.878,20.084c-1.78,4.157-3.149,8.734-3.457,13.209
	c-0.314,4.567,0.869,9.243,1.445,13.865c1.736,13.94,6.495,26.225,17.318,36.024c5.488,4.969,9.898,11.239,14.241,17.318
	c2.364,3.308,3.803,7.358,5.232,11.231c1.608,4.36-0.942,7.301-4.229,9.695c-3.182,2.318-6.196,1.666-9.159-0.576
	c-3.497-2.647-7.069-5.193-10.608-7.783c-0.369,0.227-0.738,0.454-1.108,0.681c4.331,18.088,8.637,36.182,13.051,54.25
	c0.289,1.183,1.345,2.207,2.133,3.237c8.174,10.684,17.081,20.892,24.362,32.151c8.014,12.393,13.58,26.42,22.01,38.478
	c6.862,9.815,8.984,19.713,7.614,30.968c-0.175,1.438-1.15,3.858-1.969,3.952c-3.797,0.437-3.858,3.155-4.216,5.774
	c-0.745,5.452-3.938,8.624-9.117,9.995C254.383,425.37,251.189,426.177,248,427z M118.313,304.569
	c0.276-2.739,0.582-4.505,0.613-6.276c0.474-27.769-4.154-55.491-0.804-83.298c0.115-0.956-0.635-2.799-1.191-2.885
	c-1.055-0.164-2.456,0.396-3.365,1.103c-1.83,1.425-3.428,3.149-5.12,4.752c-3.546,3.359-7.117,3.224-10.519-0.122
	c-2.238-2.201-4.274-4.607-6.422-6.945c-1.045,0.474-2.065,0.936-3.269,1.482c-0.37-1.573-0.69-2.937-1.007-4.284
	c-3.138,1.046-5.979,1.993-8.82,2.941c-0.214-0.363-0.428-0.727-0.643-1.09c1.536-1.953,3.071-3.905,5.262-6.691
	c-4.897,0.483-8.785,0.867-12.674,1.25c-0.085-0.413-0.171-0.825-0.256-1.238c2.101-1.016,4.202-2.033,6.638-3.211
	c-2.09-1.188-3.868-2.198-6.142-3.491c1.219-0.577,1.838-1.152,2.361-1.074c5.349,0.794,10.058,0.446,15.363-2.174
	c5.892-2.911,10.628-6.214,14.566-11.425c6.396-8.464,12.683-17.175,20.191-24.593c10.29-10.167,18.192-21.506,23.072-35.089
	c2.131-5.932,4.421-11.857,7.25-17.477c3.646-7.242,8.891-12.871,17.671-13.821c0.824-0.089,2.203-0.923,2.21-1.428
	c0.014-0.935-0.555-2.205-1.307-2.766c-2.555-1.905-5.295-3.561-8.7-5.795c1.098,3.396,1.883,5.827,2.668,8.257
	c-0.226,0.121-0.451,0.242-0.677,0.363c-3.261-3.471-6.523-6.942-10.582-11.262c0.408,3.185,0.672,5.244,1.011,7.891
	c-2.73-2.058-5.128-3.865-6.621-4.991c-11.972,16.65-23.562,33.069-35.478,49.247c-9.871,13.402-20.36,26.352-30.157,39.807
	c-13.223,18.16-22.364,38.201-24.875,60.721c-2.431,21.802,2.665,41.021,22.488,53.306
	C92.744,291.512,105.224,297.497,118.313,304.569z M331.226,307.969c14.052-16.109,17.538-36.239,21.285-56.274
	C341.099,268.776,333.595,287.372,331.226,307.969z M210.751,223.802c-3.999,1.965-7.358,3.617-10.688,5.254
	c2.598,8.87,16.021,19.779,25.352,20.045C222.558,239.253,216.631,231.632,210.751,223.802z M223.123,90.923
	c0.047-0.677,0.095-1.353,0.142-2.03c-4.797-1.148-9.579-2.365-14.395-3.426c-6.437-1.418-7.07-2.182-6.768-8.97
	c0.052-1.164,0.46-2.408,0.169-3.468c-0.372-1.355-1.286-2.562-1.967-3.833c-1.563,1.963-1.971,3.393-2.292,4.843
	c-0.29,1.313-0.485,2.647-0.788,4.339c-1.579-1.507-2.67-2.548-4.043-3.859c-0.033,7.992,1.833,10.852,6.547,11.703
	c1.508,1.89,2.559,4.436,3.762,4.51C210.014,91.134,216.575,90.923,223.123,90.923z"/>
</svg>
